<svg xmlns="http://www.w3.org/2000/svg" viewBox="0 0 750 500"><g fill="#ebebeb"><path d="M247 60.83c-7.95-6.51-20.92-5.47-27.89 2.07-6.05 5.33-4.18 20.45 3.32 27.46s20.9 6 27.42-1.94S255 67.34 247 60.83zm181.23 13.76c8.28 3.39 17.21-4.53 26.11-3.6 4.54.47 8.49 3.2 12.73 4.9s12.61 2.16 14.31-3.5c3.85-6.87-2.46-15.12-8.6-19.79s-17.15-6.19-24.85-6.6c-5.52-.3-11.22.22-16.22 2.59s-9.2 6.84-10.26 12.27 1.66 11.64 6.78 13.73z"/><circle cx="123.1" cy="136.21" r="47.71" transform="rotate(-9.66 123.06 136.143)"/><path d="M195.31 359.77c-18.11-22-37.72-34.08-55.92-35.74-19.55-1.3-40.69 6.78-50.38 23.8s-3.34 42.61 15 49.44c7.54 2.81 16.22 2.46 23.09 6.65 10.71 6.51 12.89 21.13 21 30.65 10 11.71 28.78 13.71 42.14 6.08s21.08-23.27 21.25-38.66-6.41-30.33-16.18-42.22z"/><circle cx="675.48" cy="267.39" r="49.39" transform="rotate(-1.27 676.516 267.832)"/></g><path d="M538.22 289.8c-6.31-35.25-36.58-66-72.27-68.94-19.45-1.58-39 4.55-58.37 2.21a68 68 0 01-42.49-22.4c-16-18.2-21.41-44.09-38.35-61.41-23.34-23.89-64.07-24.26-92.47-6.69s-45.57 49.28-53.43 81.73l-.31 9.87c-1.71 33.66 7.15 72.83 26.68 102.83 19.79 30.4 32.8 43 68.86 64.81 30.62 18.56 90.58 26.72 126.38 27.58s72.57-9.8 99.5-33.42 42.59-60.92 36.27-96.17z" fill="#007df4"/><path d="M538.22 289.8c-6.31-35.25-36.58-66-72.27-68.94-19.45-1.58-39 4.55-58.37 2.21a68 68 0 01-42.49-22.4c-16-18.2-21.41-44.09-38.35-61.41-23.34-23.89-64.07-24.26-92.47-6.69s-45.57 49.28-53.43 81.73l-.31 9.87c-1.71 33.66 7.15 72.83 26.68 102.83 19.79 30.4 32.8 43 68.86 64.81 30.62 18.56 90.58 26.72 126.38 27.58s72.57-9.8 99.5-33.42 42.59-60.92 36.27-96.17z" fill="#fff" opacity=".8"/><circle cx="556.22" cy="413.16" r="17.25" transform="rotate(-81.74 556.241 413.155)" fill="#007df4"/><circle cx="556.22" cy="413.16" r="17.25" transform="rotate(-81.74 556.241 413.155)" fill="#fff" opacity=".8"/><path d="M435.16 280.45q.49 51.66-22.52 79t-63 27.7q-40.2.39-63.91-26.48t-24.22-78.52l-.58-60.56q-.5-51.46 22.52-79t63.21-27.88q40-.39 63.73 26.67t24.21 78.51zm-44.83-66.92Q390 181 379 165.49t-32-15.32q-20.93.2-31.59 15.93T305 214.35l.7 73.59q.31 32.7 11.47 48.31t32.07 15.41q20.91-.2 31.49-15.93T391 287.12z" fill="#007df4"/><path d="M435.16 280.45q.49 51.66-22.52 79t-63 27.7q-40.2.39-63.91-26.48t-24.22-78.52l-.58-60.56q-.5-51.46 22.52-79t63.21-27.88q40-.39 63.73 26.67t24.21 78.51zm-44.83-66.92Q390 181 379 165.49t-32-15.32q-20.93.2-31.59 15.93T305 214.35l.7 73.59q.31 32.7 11.47 48.31t32.07 15.41q20.91-.2 31.49-15.93T391 287.12z" opacity=".4"/><path d="M460.62 280.21q.5 51.65-22.52 79t-63 27.7q-40.2.39-63.91-26.49T287 281.88l-.58-60.56q-.5-51.46 22.52-79t63.21-27.89q40-.37 63.73 26.67T460 219.65zm-44.83-66.92q-.32-32.52-11.38-48t-32-15.32q-20.93.21-31.59 15.93t-10.36 48.26l.71 73.58q.32 32.71 11.47 48.32t32.07 15.41q20.91-.21 31.49-15.93t10.26-48.62z" fill="#007df4"/><path d="M286.55 224.92c.05.13-5.86 2.48-13.2 5.24S260 235 260 234.91s5.86-2.48 13.2-5.24 13.3-4.89 13.35-4.75zm1.45 23.93c.05.13-5.86 2.48-13.21 5.24s-13.33 4.88-13.38 4.75 5.86-2.48 13.2-5.24 13.39-4.89 13.39-4.75zm1.49 23.93c.05.13-5.86 2.48-13.21 5.24s-13.28 4.88-13.38 4.75 5.86-2.48 13.2-5.24 13.34-4.89 13.39-4.75zm1.51 23.93c.05.13-5.86 2.48-13.21 5.24s-13.34 4.88-13.39 4.75 5.87-2.48 13.21-5.24 13.3-4.89 13.39-4.75zm1.43 23.93a4.43 4.43 0 01-.92.45c-.6.26-1.48.62-2.56 1.05-2.18.87-5.19 2-8.53 3.29s-6.38 2.36-8.59 3.14c-1.1.39-2 .7-2.62.9a3.61 3.61 0 01-1 .26 4.1 4.1 0 01.92-.45c.6-.26 1.47-.62 2.56-1 2.17-.87 5.19-2 8.53-3.29s6.38-2.37 8.59-3.14c1.1-.39 2-.7 2.62-.9a3.44 3.44 0 011-.31zm6.83 21.89a21.43 21.43 0 01-3 1.33c-1.9.76-4.53 1.78-7.44 2.88s-5.57 2.06-7.49 2.73a20.88 20.88 0 01-3.16 1 20.58 20.58 0 013-1.33c1.89-.77 4.52-1.79 7.44-2.88s5.56-2.06 7.49-2.73a19.63 19.63 0 013.16-1zm14.63 20.08a17.39 17.39 0 01-2.69 1.21c-1.69.68-4 1.59-6.62 2.57s-5 1.83-6.68 2.42a17.32 17.32 0 01-2.82.87 16.29 16.29 0 012.69-1.21c1.68-.68 4-1.59 6.62-2.57s5-1.83 6.68-2.43a16.55 16.55 0 012.82-.86zm24.31 13.17a18.09 18.09 0 01-2.69 1.2c-1.69.69-4 1.6-6.62 2.57s-5 1.83-6.68 2.43a16.55 16.55 0 01-2.82.86 17.39 17.39 0 012.69-1.21c1.69-.68 4-1.59 6.62-2.57s5-1.83 6.68-2.42a15.47 15.47 0 012.82-.86zm73.32-51.07c.06.13-7.53 3.67-16.95 7.91s-17.11 7.56-17.17 7.43 7.53-3.67 17-7.91 17.06-7.56 17.12-7.43zm4.98-20.5c.06.13-6.21 3.07-14 6.57s-14.15 6.24-14.21 6.11 6.2-3.08 14-6.58 14.15-6.23 14.21-6.1zm2.29-23.03c.06.13-6.21 3.07-14 6.57s-14.15 6.24-14.21 6.11 6.2-3.08 14-6.58 14.15-6.28 14.21-6.1zm2.29-23.04c.06.13-6.2 3.08-14 6.58s-14.15 6.23-14.21 6.1 6.21-3.07 14-6.57 14.13-6.25 14.21-6.11zm2.3-23.03c.05.13-6.21 3.08-14 6.58s-14.15 6.23-14.21 6.1 6.21-3.07 14-6.58 14.15-6.21 14.21-6.1zm-4.59-20.51c.06.13-6.21 3.08-14 6.58s-14.15 6.23-14.21 6.1 6.2-3.08 14-6.58 14.15-6.23 14.21-6.1zm0-22.08c.06.13-6.21 3.08-14 6.58s-14.15 6.23-14.21 6.1 6.2-3.08 14-6.58 14.15-6.23 14.21-6.1zm-2.29-20.79c.06.13-6.21 3.07-14 6.57s-14.15 6.24-14.21 6.11 6.2-3.08 14-6.58 14.15-6.23 14.21-6.1zm-19.75-14.49a85.43 85.43 0 01-8.47 4.1 85.54 85.54 0 01-8.69 3.62 81.6 81.6 0 018.47-4.1 85.54 85.54 0 018.69-3.62zm-10.56-8.87a88.25 88.25 0 01-8.47 4.09 85.54 85.54 0 01-8.69 3.62 85.45 85.45 0 018.47-4.08 85.54 85.54 0 018.69-3.63zm-98.51 47.54c.05.13-5.86 2.48-13.2 5.24s-13.34 4.89-13.39 4.75 5.86-2.48 13.21-5.24 13.33-4.88 13.38-4.75zm7.32-29.84c.06.13-6.36 2.66-14.31 5.66s-14.46 5.3-14.51 5.17 6.36-2.67 14.32-5.66 14.5-5.31 14.5-5.17zm19.27-29.54c.05.14-8.08 3.31-18.16 7.1s-18.29 6.75-18.34 6.62 8.08-3.32 18.16-7.11 18.29-6.74 18.34-6.61z" fill="#007df4"/><path d="M456.31 325l-.42-.14-1.2-.47c-.53-.19-1.22-.34-2-.56a20.6 20.6 0 00-2.83-.35c-4.27-.27-10.67 1.28-16.86 5.92a47.91 47.91 0 00-8.93 8.83c-2.87 3.51-5.68 7.48-8.87 11.48a52.59 52.59 0 01-11.52 11.17 41.58 41.58 0 01-15.94 6.46 41 41 0 01-17.19-.57 81.31 81.31 0 01-15.06-5.59c-4.65-2.15-9-4.34-13.14-6.15a69.79 69.79 0 00-11.94-4.03 44.05 44.05 0 00-10.3-1.18 30.87 30.87 0 00-7.75 1.05 28.23 28.23 0 00-4.62 1.81l-1.14.6a2 2 0 01-.4.19l.37-.23 1.12-.65a25.61 25.61 0 014.61-1.91 30.74 30.74 0 017.8-1.15 43.89 43.89 0 0110.39 1.11 70 70 0 0112 4c4.18 1.8 8.53 4 13.17 6.12a80.74 80.74 0 0015 5.52 40.45 40.45 0 0017 .56 41.27 41.27 0 0015.75-6.37 52.13 52.13 0 0011.44-11.05c3.19-4 6-7.94 8.91-11.46a48.18 48.18 0 019-8.85c6.28-4.64 12.77-6.16 17.09-5.82a20.63 20.63 0 012.86.39c.8.25 1.49.41 2 .62l1.19.52zm6.31-66.7c0 .05-.71.14-1.95.55a19.44 19.44 0 00-4.83 2.59c-1.9 1.33-4 3.19-6.41 5.11a45.74 45.74 0 01-8.59 5.29 47.23 47.23 0 01-17.66 4.56c-1.17.1-2.24.07-3.17.09s-1.73-.06-2.38-.11l-1.51-.15a1.63 1.63 0 01-.51-.09 1.89 1.89 0 01.52 0l1.51.05h2.37c.93-.05 2 0 3.14-.16a49.37 49.37 0 0017.47-4.67 47.88 47.88 0 008.52-5.2c2.43-1.88 4.54-3.73 6.5-5a18 18 0 015-2.48 11.71 11.71 0 011.48-.32 1.64 1.64 0 01.5-.06zM332 281.47a2.71 2.71 0 01-.54-.08c-.36-.08-.89-.16-1.56-.35a23.38 23.38 0 01-5.36-2.35 54.22 54.22 0 01-7-5.11c-2.51-2.08-5.19-4.45-8.26-6.57a28.31 28.31 0 00-9.49-4.35 29.29 29.29 0 00-14.24.06c-1.33.34-2.05.6-2.06.55a1.85 1.85 0 01.5-.23c.34-.13.84-.33 1.51-.52a26 26 0 015.75-1 28 28 0 018.65.71 28.39 28.39 0 019.67 4.39c3.11 2.15 5.79 4.54 8.28 6.63a57.31 57.31 0 006.88 5.17 26 26 0 005.23 2.47 20 20 0 012.04.58zm.17-94.53a10.55 10.55 0 01-1.67.61 20.07 20.07 0 01-2 .59c-.79.2-1.68.47-2.69.65s-2.1.43-3.3.58-2.47.29-3.82.41a58.06 58.06 0 01-8.8-.11 58.77 58.77 0 01-8.67-1.53c-1.3-.37-2.55-.71-3.68-1.12s-2.19-.79-3.13-1.18-1.78-.8-2.52-1.14-1.35-.67-1.85-.95a11.57 11.57 0 01-1.52-.91 12.19 12.19 0 011.61.73c.51.25 1.14.56 1.88.87s1.58.71 2.54 1.05 2 .77 3.13 1.12 2.36.71 3.66 1.06a57 57 0 0017.32 1.63c1.34-.11 2.61-.18 3.8-.36s2.28-.33 3.28-.51 1.89-.4 2.68-.57 1.47-.35 2-.5a12.55 12.55 0 011.75-.42zm124.77-.25a2.1 2.1 0 01-.42-.21l-1.16-.67a19.68 19.68 0 00-1.86-1 26.55 26.55 0 00-2.53-1.19l-1.5-.63c-.53-.21-1.09-.37-1.67-.57-1.14-.42-2.41-.71-3.74-1.06a41.39 41.39 0 00-17.68-.15 37.92 37.92 0 00-3.76 1c-.58.19-1.15.34-1.68.54l-1.51.6a27.52 27.52 0 00-2.55 1.15 16.51 16.51 0 00-1.87 1l-1.18.65c-.27.14-.42.21-.43.19a1.8 1.8 0 01.38-.28l1.12-.74a15.93 15.93 0 011.85-1.06 23.32 23.32 0 012.54-1.23l1.51-.64c.53-.21 1.11-.37 1.69-.57a35.7 35.7 0 013.79-1.05 40.12 40.12 0 0117.89.16c1.34.36 2.62.67 3.77 1.11.58.21 1.15.38 1.67.61l1.51.66a28 28 0 012.52 1.27 16.33 16.33 0 011.82 1.1l1.12.76c.25.13.42.23.36.25zm-61.14-67.93a4.3 4.3 0 01-.72.44l-2.08 1.15c-1.85 1-4.53 2.39-7.89 4.07-6.7 3.31-16.11 7.84-27.25 10.66a74.66 74.66 0 01-16 2.22 57.39 57.39 0 01-13.13-1.13 45.58 45.58 0 01-8.5-2.59c-1-.38-1.69-.78-2.19-1a5.76 5.76 0 01-.75-.39 3.87 3.87 0 01.79.3c.52.19 1.24.56 2.23.91a49.13 49.13 0 008.49 2.42 58.41 58.41 0 0013.05 1 75.66 75.66 0 0015.87-2.25c11.07-2.8 20.49-7.25 27.22-10.48l8-3.93 2.06-1.06a6.66 6.66 0 01.8-.34z" fill="#fff"/><path d="M195.06 293l33.43 1.46-1.55 35.43-33.43-1.46-2.57 58.87-44-1.92 2.57-58.87L36 321.55l.09-27 121-173.8 45.42 2zm-115-5l71 3.1 4.68-107.38-1.07-.41-4 7.65z" fill="#007df4"/><path d="M195.06 293l33.43 1.46-1.55 35.43-33.43-1.46-2.57 58.87-44-1.92 2.57-58.87L36 321.55l.09-27 121-173.8 45.42 2zm-115-5l71 3.1 4.68-107.38-1.07-.41-4 7.65z" opacity=".4"/><path d="M223 294.22l33.43 1.46-1.55 35.43-33.43-1.46-2.57 58.87-44-1.92 2.57-58.87-113.56-5 .09-27L185 122l45.43 2zm-115-5l71.05 3.1 4.68-107.38-1.07-.41-4 7.65z" fill="#007df4"/><path d="M64.59 300.92a5.51 5.51 0 01-1.08.61c-.71.36-1.75.86-3 1.46-2.57 1.21-6.16 2.82-10.17 4.52s-7.66 3.14-10.32 4.15c-1.33.5-2.42.89-3.17 1.15a6.3 6.3 0 01-1.19.36 5.4 5.4 0 011.12-.55l3.1-1.31L50.1 307l10.22-4.37 3.11-1.32a6 6 0 011.16-.39zM80.87 271a12.43 12.43 0 01-1.51.79c-1 .48-2.42 1.16-4.2 2-3.57 1.62-8.52 3.79-14 6.12s-10.55 4.32-14.16 5.74c-1.82.72-3.3 1.28-4.34 1.65a9.12 9.12 0 01-1.62.52 12.2 12.2 0 011.55-.71l4.27-1.8 14.11-5.93 14.08-6 4.27-1.81a8.85 8.85 0 011.55-.57zm19.87-26.73a10.48 10.48 0 01-1.58.8c-1 .48-2.53 1.16-4.39 2-3.73 1.63-8.9 3.8-14.64 6.13s-11 4.36-14.79 5.79c-1.9.71-3.45 1.27-4.52 1.64a9.72 9.72 0 01-1.69.52 13.59 13.59 0 011.62-.71l4.46-1.8 14.72-5.93 14.69-6 4.46-1.81a11.49 11.49 0 011.66-.63zm79.59 30.84a5.69 5.69 0 01-1.09.59c-.71.35-1.75.83-3.05 1.41-2.58 1.17-6.18 2.72-10.19 4.35s-7.68 3-10.34 4c-1.34.48-2.42.86-3.17 1.11a6.54 6.54 0 01-1.19.33 5.22 5.22 0 011.11-.52l3.12-1.26 10.28-4.12 10.24-4.2 3.11-1.27a5.66 5.66 0 011.17-.42zm-3.24 54.94a5.41 5.41 0 01-1.05.59c-.69.34-1.7.83-2.95 1.41-2.5 1.17-6 2.72-9.87 4.34s-7.45 3-10 4c-1.3.48-2.35.86-3.08 1.1a5.51 5.51 0 01-1.16.34 5.35 5.35 0 011.08-.53l3-1.26 10-4.11 9.92-4.2 3-1.26a5.67 5.67 0 011.11-.42zm-.46 19.26a5.14 5.14 0 01-1 .58c-.69.35-1.7.83-3 1.42-2.5 1.16-6 2.71-9.88 4.34s-7.44 3-10 4c-1.29.48-2.34.86-3.08 1.11a4.58 4.58 0 01-1.15.33 6.14 6.14 0 011.08-.52l3-1.26 10-4.11 9.93-4.2 3-1.26a4.77 4.77 0 011.1-.43zm-.46 19.25a5.86 5.86 0 01-1 .59c-.69.35-1.7.83-3 1.41-2.51 1.17-6 2.72-9.88 4.34s-7.44 3-10 4c-1.29.48-2.35.86-3.08 1.1a5.74 5.74 0 01-1.15.34 5.27 5.27 0 011.08-.53l3-1.25 10-4.12 9.93-4.2 3-1.26a5.38 5.38 0 011.1-.42zm4.68-113.79a6.48 6.48 0 01-1.09.59c-.71.35-1.75.83-3 1.41-2.58 1.17-6.18 2.72-10.19 4.35s-7.68 3-10.34 4c-1.34.48-2.42.86-3.17 1.1a6.21 6.21 0 01-1.19.34 4.88 4.88 0 011.11-.53l3.12-1.26 10.28-4.11 10.24-4.2 3.11-1.26a5.66 5.66 0 011.12-.43zm.52-20.34a6.48 6.48 0 01-1.09.59c-.71.34-1.75.83-3.05 1.41-2.58 1.17-6.18 2.72-10.19 4.34s-7.67 3-10.34 4c-1.34.48-2.42.85-3.17 1.1a6.21 6.21 0 01-1.19.34 4.85 4.85 0 011.12-.53l3.11-1.26 10.28-4.11 10.24-4.2 3.11-1.26a5.66 5.66 0 011.17-.42zm.52-20.34a5.73 5.73 0 01-1 .56c-.67.33-1.66.79-2.89 1.35-2.47 1.12-5.89 2.61-9.71 4.15s-7.32 2.87-9.86 3.78c-1.27.45-2.3.81-3 1a5.31 5.31 0 01-1.14.32 5.14 5.14 0 011.07-.51l3-1.2 9.79-3.91 9.76-4 3-1.2a4.61 4.61 0 01.98-.34zm2.3-19.01a29.12 29.12 0 01-5 2.13 28.82 28.82 0 01-5.19 1.65 29.24 29.24 0 015-2.14 28.23 28.23 0 015.19-1.64zm-63.62 21.51a12.75 12.75 0 01-1.57.8c-1 .48-2.53 1.15-4.4 2-3.72 1.63-8.89 3.8-14.64 6.13s-11 4.37-14.78 5.79c-1.9.71-3.45 1.27-4.52 1.64a13.06 13.06 0 01-1.69.53 10.33 10.33 0 011.62-.72l4.46-1.79L99.77 225l14.69-6 4.45-1.81a13.28 13.28 0 011.66-.6zm19.84-27.69a10.48 10.48 0 01-1.58.8c-1 .48-2.53 1.16-4.39 2-3.72 1.62-8.9 3.8-14.64 6.12s-11 4.37-14.78 5.79c-1.91.72-3.45 1.28-4.53 1.65a10.12 10.12 0 01-1.68.52 12 12 0 011.61-.71l4.46-1.8 14.72-5.93 14.7-6 4.45-1.82a12 12 0 011.66-.62zm18.33-27.68a12.53 12.53 0 01-1.58.8c-1 .48-2.53 1.15-4.39 2-3.72 1.63-8.9 3.8-14.64 6.13s-11 4.37-14.78 5.79c-1.9.71-3.45 1.27-4.52 1.64a13.06 13.06 0 01-1.69.53 10.33 10.33 0 011.62-.72l4.46-1.79 14.72-5.93 14.69-6 4.45-1.81a10.1 10.1 0 011.66-.64zm19.08-26.62a13.55 13.55 0 01-1.58.8c-1 .48-2.53 1.15-4.39 2-3.73 1.63-8.9 3.8-14.64 6.13s-11 4.37-14.79 5.79c-1.9.71-3.44 1.27-4.52 1.64a12 12 0 01-1.69.53 10.94 10.94 0 011.62-.72l4.46-1.79L157 143l14.69-6 4.46-1.81a12 12 0 011.67-.59z" fill="#007df4"/><path d="M228.44 175.27a3.8 3.8 0 01-.58.66 19.78 19.78 0 01-1.81 1.75 31.77 31.77 0 01-7.77 5 34.22 34.22 0 01-13.36 3 31.29 31.29 0 01-8.09-.91 41 41 0 01-8.17-3.05c-5.38-2.62-10.16-5.71-14.83-7.86a34 34 0 00-13.1-3.42 19.42 19.42 0 00-8.93 1.67 15.49 15.49 0 00-2.17 1.24 6.15 6.15 0 01-.74.47 6.16 6.16 0 01.68-.55 14 14 0 012.14-1.34 19.19 19.19 0 019-1.86 33.9 33.9 0 0113.29 3.41c4.72 2.15 9.52 5.23 14.85 7.83a41.44 41.44 0 008.08 3 31.09 31.09 0 007.95.92 33.65 33.65 0 0021-7.73c.85-.68 1.45-1.28 1.87-1.67a5.64 5.64 0 01.69-.56zm-13.92-49.44a9.27 9.27 0 01-1.27.74c-.83.45-2.07 1-3.63 1.7a54 54 0 01-5.6 2 56.76 56.76 0 01-14.34 2.34 53.2 53.2 0 01-6-.12c-1.69-.13-3-.29-4-.46a8.44 8.44 0 01-1.44-.29 7.68 7.68 0 011.47.09c.93.11 2.29.21 4 .29s3.69.1 5.91 0a67.89 67.89 0 007.18-.74 69.23 69.23 0 007-1.58c2.13-.62 4-1.26 5.59-1.88s2.82-1.15 3.68-1.54a8.14 8.14 0 011.45-.55zm-71 111.06a7.42 7.42 0 01-.9-1l-2.36-2.82a112.47 112.47 0 00-8.38-8.75 30.65 30.65 0 00-5.25-4 15.94 15.94 0 00-5-1.94 14.07 14.07 0 00-4.95 0s.11-.06.33-.13a5.5 5.5 0 011-.23 11.2 11.2 0 013.71 0 15.52 15.52 0 015.17 1.89 29.14 29.14 0 015.37 4.07 87.5 87.5 0 018.3 8.9c1 1.21 1.74 2.22 2.24 2.92a6.14 6.14 0 01.72 1.09zm79.77 30.21s-.13.12-.39.3-.65.47-1.19.77a29.6 29.6 0 01-4.71 2.23 30.6 30.6 0 01-32-6.55 28.06 28.06 0 01-3.44-3.89c-.37-.49-.61-.9-.79-1.17s-.26-.42-.24-.43a17.49 17.49 0 011.19 1.48 34.09 34.09 0 003.53 3.74 31.15 31.15 0 0031.59 6.47 32.72 32.72 0 004.71-2.06 17.89 17.89 0 011.74-.89zm29.13 63.32s-.1-.15-.28-.47-.46-.78-.8-1.38a38.37 38.37 0 00-3.42-5.07l-1.36-1.6-.73-.87-.85-.83-1.8-1.78-2.1-1.74a47.28 47.28 0 00-11-6.53 45.12 45.12 0 00-15-3.49 41.78 41.78 0 00-17.43 2.8c-5.85 2.3-11.5 5.77-17.48 9.13a82.88 82.88 0 01-9.39 4.66 38.33 38.33 0 01-10.47 2.75 33.78 33.78 0 01-10.78-.65 48.23 48.23 0 01-9.93-3.35 104 104 0 01-16.92-10.28c-5.13-3.65-10-7.18-14.81-10a53.29 53.29 0 00-14.23-6.08 36.49 36.49 0 00-12.71-.84 27.11 27.11 0 00-9.23 2.67 23.32 23.32 0 00-5 3.45L65.54 302c-.25.25-.39.37-.39.37s.11-.14.36-.41l1.09-1.17a22.88 22.88 0 015-3.55 27.07 27.07 0 019.3-2.78 36.55 36.55 0 0112.83.77 54.12 54.12 0 0114.36 6.06c4.87 2.82 9.73 6.34 14.87 10a103.75 103.75 0 0016.85 10.2 47.38 47.38 0 009.82 3.35 33.46 33.46 0 0010.63.64 38 38 0 0010.31-2.7 85.34 85.34 0 009.34-4.62c6-3.35 11.64-6.83 17.54-9.14a37.89 37.89 0 014.46-1.44c.75-.19 1.49-.42 2.23-.57l2.24-.37a42.78 42.78 0 018.7-.4 45.48 45.48 0 0115.17 3.58 47.86 47.86 0 0111 6.64c.72.61 1.42 1.21 2.1 1.77l1.79 1.81.84.84c.25.3.5.59.73.88.48.57.93 1.11 1.35 1.63a35.47 35.47 0 013.35 5.14l.75 1.41c.19.31.26.48.26.48zm-30.22 41.77a2 2 0 01-.51.13l-1.48.28a23.13 23.13 0 01-2.35.35c-.92.09-2 .24-3.14.27l-1.84.08h-2c-1.37 0-2.84-.13-4.38-.25a60.47 60.47 0 01-9.87-1.92 61.27 61.27 0 01-9.36-3.68c-1.36-.73-2.67-1.4-3.83-2.15-.58-.36-1.16-.69-1.69-1l-1.5-1.05c-1-.65-1.77-1.34-2.5-1.92a22 22 0 01-1.81-1.55c-.43-.42-.8-.76-1.09-1a2.14 2.14 0 01-.36-.39 2.27 2.27 0 01.43.31l1.16 1c.49.42 1.1.93 1.85 1.47s1.55 1.22 2.53 1.85l1.51 1c.53.35 1.11.67 1.69 1 1.16.73 2.47 1.38 3.83 2.09a57.13 57.13 0 0019.06 5.55c1.53.13 3 .29 4.35.3.68 0 1.34.06 2 0h1.82c1.16 0 2.21-.13 3.13-.19s1.71-.16 2.35-.26l1.49-.18a1.79 1.79 0 01.51-.14z" fill="#fff"/><path d="M629.32 293.41l33.3-3.25 3.45 35.29-33.3 3.26 5.73 58.64-43.8 4.29L589 333l-113.16 11.06-3.71-26.73 95.35-189.09 45.25-4.43zm-114.58 11.21l70.77-6.92-10.46-107-1.12-.25-2.86 8.14z" fill="#007df4"/><path d="M629.32 293.41l33.3-3.25 3.45 35.29-33.3 3.26 5.73 58.64-43.8 4.29L589 333l-113.16 11.06-3.71-26.73 95.35-189.09 45.25-4.43zm-114.58 11.21l70.77-6.92-10.46-107-1.12-.25-2.86 8.14z" opacity=".4"/><path d="M657.17 290.69l33.3-3.26 3.46 35.3-33.31 3.27 5.74 58.65-43.81 4.28-5.73-58.64-113.13 11.04-3.69-26.72 95.35-189.09 45.25-4.43zm-114.57 11.2l70.77-6.89-10.46-107-1.13-.26-2.85 8.14z" fill="#007df4"/><path d="M501.26 319.61a6 6 0 01-1 .75c-.65.46-1.61 1.1-2.8 1.88-2.39 1.56-5.71 3.66-9.44 5.9s-7.14 4.19-9.64 5.56c-1.24.68-2.26 1.23-3 1.59a6.08 6.08 0 01-1.13.52 5.07 5.07 0 011-.7l2.89-1.73 9.56-5.69 9.5-5.76 2.89-1.74a5.62 5.62 0 011.17-.58zm11.9-31.94a10.93 10.93 0 01-1.38 1c-.9.61-2.23 1.48-3.88 2.54-3.3 2.11-7.9 5-13 8s-9.8 5.81-13.21 7.73c-1.7 1-3.09 1.73-4.06 2.24a11.91 11.91 0 01-1.53.75 10.54 10.54 0 011.43-.93l4-2.38 13.13-7.85 13.09-7.91 4-2.39a10.67 10.67 0 011.41-.8zm15.92-29.23a11.4 11.4 0 01-1.45 1c-1 .62-2.34 1.5-4.07 2.57-3.46 2.13-8.28 5-13.64 8.12S499.67 276 496.1 278c-1.78 1-3.23 1.75-4.24 2.27a11.7 11.7 0 01-1.6.75 11.74 11.74 0 011.5-.93l4.16-2.41 13.74-7.94 13.71-8 4.15-2.42a11.76 11.76 0 011.56-.88zm83.14 19.34a5.66 5.66 0 01-1 .73c-.65.45-1.62 1.07-2.81 1.83-2.4 1.52-5.74 3.56-9.48 5.74s-7.18 4.06-9.69 5.38c-1.25.67-2.27 1.19-3 1.54a5.78 5.78 0 01-1.13.5 5.71 5.71 0 011-.68l2.91-1.68 9.59-5.52 9.55-5.59 2.91-1.69a5.59 5.59 0 011.15-.56zm4.52 54.84a5.12 5.12 0 01-1 .73c-.63.44-1.56 1.06-2.72 1.82-2.31 1.5-5.54 3.53-9.16 5.69s-6.95 4-9.38 5.34c-1.21.66-2.2 1.18-2.89 1.53a5 5 0 01-1.1.49 5.72 5.72 0 011-.67l2.81-1.67 9.29-5.47 9.24-5.56 2.81-1.67a5.13 5.13 0 011.1-.56zm2.26 19.13a5.12 5.12 0 01-1 .73c-.63.44-1.56 1.06-2.72 1.82-2.31 1.5-5.54 3.53-9.16 5.68s-6.95 4-9.38 5.35c-1.21.66-2.2 1.18-2.89 1.53a5 5 0 01-1.1.49 5.72 5.72 0 011-.67l2.81-1.67 9.29-5.47 9.24-5.56 2.81-1.67a5.13 5.13 0 011.1-.56zm2.24 19.13a5.12 5.12 0 01-1 .73c-.63.44-1.56 1.06-2.72 1.81-2.31 1.51-5.54 3.54-9.16 5.69s-6.95 4-9.38 5.35c-1.21.66-2.2 1.18-2.89 1.53a5.75 5.75 0 01-1.1.49 5.72 5.72 0 011-.67l2.81-1.67 9.29-5.47 9.24-5.56 2.81-1.67a5.13 5.13 0 011.1-.56zm-11.37-113.32a6.09 6.09 0 01-1 .74c-.66.44-1.62 1.07-2.82 1.83a310.005 310.005 0 01-19.16 11.12c-1.26.66-2.28 1.19-3 1.54a5.78 5.78 0 01-1.13.5 6.12 6.12 0 011-.68l2.9-1.68 9.6-5.52 9.55-5.6 2.9-1.68a6.13 6.13 0 011.16-.57zm-2.35-20.21a5.54 5.54 0 01-1 .74c-.66.44-1.62 1.06-2.82 1.82-2.39 1.52-5.73 3.57-9.48 5.74s-7.17 4.06-9.68 5.39c-1.25.66-2.27 1.19-3 1.54a4.9 4.9 0 01-1.13.49 5.43 5.43 0 011-.67l2.9-1.69 9.6-5.51 9.55-5.6 2.9-1.69a6.32 6.32 0 011.16-.56zm-2.34-20.21a5.11 5.11 0 01-.94.7c-.63.43-1.55 1-2.69 1.75-2.27 1.45-5.45 3.4-9 5.47s-6.84 3.87-9.23 5.13l-2.85 1.46a5.37 5.37 0 01-1.08.47 5.93 5.93 0 011-.65l2.76-1.61 9.15-5.25 9.09-5.34 2.77-1.6a5.19 5.19 0 011.02-.53zm-.4-19.14a28.31 28.31 0 01-4.66 2.82 30 30 0 01-4.91 2.37 28.31 28.31 0 014.66-2.82 29.62 29.62 0 014.91-2.37zm-59.96 30.24a10.71 10.71 0 01-1.44 1c-1 .62-2.35 1.5-4.08 2.57-3.45 2.13-8.27 5-13.63 8.12s-10.25 5.87-13.82 7.81c-1.78 1-3.24 1.75-4.25 2.27a12.79 12.79 0 01-1.59.75 10.85 10.85 0 011.5-.93l4.16-2.41 13.74-7.94 13.7-8 4.16-2.42a12.15 12.15 0 011.55-.82zM560.57 198a11.4 11.4 0 01-1.45 1c-1 .62-2.34 1.5-4.07 2.57-3.46 2.13-8.28 5-13.63 8.12s-10.26 5.87-13.83 7.81c-1.78 1-3.23 1.75-4.24 2.27a11.7 11.7 0 01-1.6.75 11.74 11.74 0 011.5-.93l4.16-2.41 13.74-7.94 13.71-8 4.16-2.42a11.38 11.38 0 011.55-.82zm14.26-29.95a11.4 11.4 0 01-1.45 1c-1 .62-2.34 1.5-4.07 2.57-3.46 2.13-8.28 5-13.64 8.12s-10.25 5.87-13.82 7.81c-1.78 1-3.23 1.75-4.24 2.27a12.41 12.41 0 01-1.6.75 11.74 11.74 0 011.5-.93l4.16-2.41 13.74-7.94 13.71-8 4.15-2.42a11.06 11.06 0 011.56-.82zM590 139a11.4 11.4 0 01-1.45 1c-.95.62-2.34 1.5-4.07 2.57-3.46 2.13-8.28 5-13.64 8.13s-10.25 5.86-13.82 7.81c-1.78 1-3.23 1.74-4.24 2.26a11.87 11.87 0 01-1.6.76 9.86 9.86 0 011.5-.94l4.16-2.4 13.74-8 13.71-8 4.15-2.42A11.76 11.76 0 01590 139z" fill="#007df4"/><path d="M645.81 172.16a4.85 4.85 0 01-.48.73 19.44 19.44 0 01-1.55 2 31.58 31.58 0 01-7 6.06 34.08 34.08 0 01-12.8 4.9 31.3 31.3 0 01-8.13.23 41.1 41.1 0 01-8.52-1.87c-5.7-1.83-10.86-4.22-15.79-5.7A34.15 34.15 0 00578.1 177a19.52 19.52 0 00-8.61 2.91 16.8 16.8 0 00-2 1.53 4.52 4.52 0 01-.66.57 5 5 0 01.59-.64 14.06 14.06 0 011.93-1.63 19.17 19.17 0 018.68-3.1 33.9 33.9 0 0113.66 1.36c5 1.47 10.16 3.84 15.8 5.67a41.93 41.93 0 008.42 1.86 31.31 31.31 0 008-.21 34.11 34.11 0 0012.67-4.73 33.17 33.17 0 007-5.88 23.22 23.22 0 001.61-1.92 6.22 6.22 0 01.62-.63zm-20.74-46.99a8.08 8.08 0 01-1.15.91c-.76.57-1.9 1.32-3.35 2.19a54 54 0 01-5.26 2.77 62.86 62.86 0 01-6.8 2.61 62 62 0 01-7.08 1.73 57.2 57.2 0 01-5.9.72c-1.69.11-3.06.13-4 .1a7.14 7.14 0 01-1.47-.09 7.81 7.81 0 011.46-.11c.94 0 2.3-.12 4-.27s3.66-.42 5.84-.82a71 71 0 007-1.75 67.62 67.62 0 006.76-2.56c2-.91 3.81-1.81 5.27-2.65s2.63-1.53 3.42-2a8.51 8.51 0 011.26-.78zM570.4 245.11a7.52 7.52 0 01-1-.88l-2.74-2.45a112.18 112.18 0 00-9.52-7.49 30.52 30.52 0 00-5.77-3.26 15.86 15.86 0 00-5.22-1.21 14.2 14.2 0 00-4.91.66s.1-.08.31-.18a6.5 6.5 0 01.94-.36 11.16 11.16 0 013.68-.49 15.58 15.58 0 015.38 1.14 29.11 29.11 0 015.88 3.27 88 88 0 019.48 7.65c1.14 1.06 2 2 2.63 2.58a5.88 5.88 0 01.86 1.02zm83.22 18.7s-.1.13-.34.35-.58.55-1.07.92a28.17 28.17 0 01-4.33 2.87 30.65 30.65 0 01-32.57-2 28 28 0 01-3.94-3.37c-.44-.43-.74-.8-1-1a1.71 1.71 0 01-.3-.4s.5.46 1.39 1.3a33.11 33.11 0 004 3.21 31.13 31.13 0 0032.18 2 33.31 33.31 0 004.38-2.7 17.72 17.72 0 011.6-1.18zm37.76 58.58a4.5 4.5 0 01-.38-.39c-.24-.29-.56-.71-1-1.25a39.27 39.27 0 00-4.1-4.54l-1.58-1.4-.84-.75-1-.71-2-1.5-2.33-1.43a47.18 47.18 0 00-11.78-4.92 45.25 45.25 0 00-15.37-1.38 41.82 41.82 0 00-16.86 5.23c-5.47 3.1-10.57 7.33-16 11.5a84.91 84.91 0 01-8.64 5.93 38.36 38.36 0 01-10 4.19 34.19 34.19 0 01-10.77.87 48.1 48.1 0 01-10.31-2 103 103 0 01-18.19-7.79c-5.6-2.9-10.89-5.7-16.07-7.81a53.85 53.85 0 00-15-4 36.51 36.51 0 00-12.7 1 27.08 27.08 0 00-8.76 3.94 24.15 24.15 0 00-4.5 4.12l-.95 1.28c-.22.29-.34.43-.34.43s.09-.16.29-.46l.92-1.31a22.61 22.61 0 014.46-4.22 26.68 26.68 0 018.81-4.06 36.51 36.51 0 0112.81-1.05 54 54 0 0115.07 4c5.22 2.1 10.53 4.9 16.13 7.78a104 104 0 0018.11 7.74 48 48 0 0010.2 1.93 33.41 33.41 0 0010.61-.86 37.93 37.93 0 009.83-4.13 82.89 82.89 0 008.59-5.89c5.44-4.15 10.57-8.39 16.09-11.51a38.1 38.1 0 014.22-2.05c.71-.3 1.4-.62 2.12-.88l2.16-.68a43.28 43.28 0 018.56-1.63 45.64 45.64 0 0115.52 1.42 47.18 47.18 0 0111.84 5l2.33 1.45 2 1.54 1 .71.84.77 1.57 1.42a37.67 37.67 0 014 4.62c.4.56.72 1 .94 1.29zM667.32 368a2.67 2.67 0 01-.48.2l-1.42.49a23.69 23.69 0 01-2.28.67c-.91.22-1.92.52-3.08.71l-1.8.34c-.63.11-1.29.17-2 .26-1.36.2-2.83.27-4.38.37a61.67 61.67 0 01-10-.51 59.67 59.67 0 01-9.78-2.34c-1.46-.52-2.85-1-4.1-1.58-.63-.28-1.25-.52-1.82-.8l-1.63-.83c-1.06-.51-1.95-1.08-2.75-1.55a22.34 22.34 0 01-2-1.28l-1.23-.87a2.08 2.08 0 01-.41-.33 1.9 1.9 0 01.47.24l1.28.79c.54.35 1.22.77 2 1.2s1.7 1 2.76 1.47l1.64.79c.57.28 1.19.51 1.82.78 1.25.55 2.63 1 4.08 1.52A62.14 62.14 0 00642 370a63 63 0 009.95.55c1.53-.09 3-.13 4.34-.32.67-.08 1.33-.13 2-.23l1.8-.3c1.15-.16 2.16-.44 3.07-.63s1.67-.4 2.29-.59l1.45-.39a2 2 0 01.42-.09z" fill="#fff"/><path d="M459.08 221.54l-7-1.1-43.37-14-25.36-7.33a27.32 27.32 0 00-21.95 1.5c-12 6.1-45.06 36.88-45.06 36.88l23.81 24.55-11.21 49.68c12.55 35.68 37.12 39.77 37.12 39.77a87 87 0 0035.2-5.82C424.07 337 448 316.59 451 307.82c1.8-5.26 3.29-16.32 4.47-28.81l36.12-14.72 9.79-50z" fill="#455a64"/><path d="M406.32 310s-.11.12-.35.31-.59.48-1.08.8a24.7 24.7 0 01-4.34 2.33 26.52 26.52 0 01-30-6.54 25 25 0 01-3-3.94c-.31-.49-.5-.9-.65-1.17a2.1 2.1 0 01-.19-.42 14.51 14.51 0 011 1.48 28 28 0 003.08 3.79 26.79 26.79 0 0029.55 6.46 27.93 27.93 0 004.37-2.17c1.06-.63 1.58-.99 1.61-.93zM392.6 208.51a.75.75 0 01.08.24c.05.19.11.42.18.71.15.62.36 1.55.61 2.74a66.75 66.75 0 011.43 10.23 32.31 32.31 0 01-.41 7.14 23.23 23.23 0 01-2.85 7.71 30.5 30.5 0 01-5.93 6.87c-2.35 2.1-4.95 4-7.6 6.06-5.64 4.23-11.12 8.06-16 11.54s-9.23 6.59-12.69 9.21l-.11.09-.11-.09a74.8 74.8 0 01-6.94-6.25 17.12 17.12 0 01-1.63-1.92c-.17-.23-.27-.42-.35-.54a1.75 1.75 0 01-.11-.2l.54.68a23 23 0 001.68 1.85 88.17 88.17 0 007 6.11h-.22c3.44-2.66 7.74-5.83 12.64-9.32s10.36-7.34 16-11.57c2.64-2 5.24-3.95 7.57-6a30.22 30.22 0 005.86-6.74 22.56 22.56 0 002.83-7.53 32.33 32.33 0 00.47-7.06 72.64 72.64 0 00-1.26-10.2c-.22-1.17-.39-2.09-.52-2.76q-.08-.43-.12-.72a.77.77 0 01-.04-.28zM580.93 231c10.15-8.71 13.59-24.38 8-36.53l-14.3-1.47A20.39 20.39 0 00585 172.44a27.31 27.31 0 01-31.23 5.75c-6.68-3.3-12.1-9.45-19.44-10.74-6.66-1.17-13.21 2-19.59 4.22s-14.1 3.51-19.38-.72c-4.18-3.35-5.48-9.22-5.21-14.58s1.82-10.58 2.15-15.93a36.19 36.19 0 00-11.59-28.22 27.46 27.46 0 00-43.11-13.71c-3.13 2.42-5.77 5.55-9.32 7.3-4 2-8.67 2-13 3s-8.9 3.94-9.36 8.39l-1.75 9.11c-.29.65-.6 1.29-1 1.92-3.68 6.46-11.22 10.71-12.87 18-.92 4.07.22 8.48-1.15 12.42-1.81 5.19-7.41 8.11-10 12.94-3.58 6.64-1.15 18.27 4.58 23.17s17.54 10.1 24.92 11.67c2-7.67 3.77-15.87 5.48-24.26 3 2.89 6.17 5.64 9.31 8.37 8.21 7.14 16.6 14.39 22.3 23.66 10.83 17.63 11 41 24.65 56.54 2.67 3.05 5.92 5.76 9.8 6.94s8.48.55 11.35-2.31c3.39-3.38 3.83-9.08 7.58-12.05 5-3.95 12.26-.8 17.61 2.63 3.88 2.48 7.76 5.1 12.15 6.46s9.51 1.27 13.25-1.41 5.38-8.4 2.68-12.13c-1.08-1.49-2.69-2.53-3.76-4s-1.38-3.87.09-5 3.88 0 5.63 1a33.53 33.53 0 0048.74-18.13 27.79 27.79 0 01-14.58-1.74z" fill="#263238"/><path d="M572 152.55a10.91 10.91 0 011.29 1.1 15 15 0 013 3.89 11.31 11.31 0 011.1 3.37 8 8 0 01-3.56 7.91 5.92 5.92 0 01-2.52.91 5.77 5.77 0 01-2.8-.4c-3.71-1.52-5.58-5.81-9.59-7.72-3.91-2.07-8.91-2.21-13.71-1.11s-9.49 3.71-14.22 6.37-9.76 5.51-15.55 6.5a21.83 21.83 0 01-8.6-.06 16.42 16.42 0 01-4-1.48 15.54 15.54 0 01-3.36-2.48 18.94 18.94 0 01-4.3-6.82 30.76 30.76 0 01-1.78-7.53c-.53-5-.11-9.8-.06-14.23a41.85 41.85 0 00-1.21-12.22 28.19 28.19 0 00-1.91-5 29 29 0 00-2.43-4.13 31.15 31.15 0 00-5.11-5.7 32.49 32.49 0 00-3.91-2.88l-1.09-.65-.36-.23a2.2 2.2 0 01.39.19l1.12.6a29.78 29.78 0 019.2 8.51 29.87 29.87 0 014.45 9.2 41.55 41.55 0 011.29 12.32c0 4.46-.43 9.22.11 14.17a30.5 30.5 0 001.75 7.4 18.46 18.46 0 004.2 6.63 14.72 14.72 0 003.24 2.4 16.63 16.63 0 003.85 1.43 21.58 21.58 0 008.4.05c5.68-1 10.66-3.79 15.39-6.44s9.4-5.26 14.36-6.39a25.1 25.1 0 017.33-.62 19.26 19.26 0 013.49.57 15.87 15.87 0 013.2 1.25c4.15 2 6 6.34 9.53 7.75a5.33 5.33 0 005-.44 7.68 7.68 0 003-3.56 7.54 7.54 0 00.5-4 10.81 10.81 0 00-1-3.31 15.71 15.71 0 00-2.84-3.91 20.134 20.134 0 00-1.28-1.21zm-163.45 57.72s0-.15-.08-.45a7.79 7.79 0 00-.27-1.31 11.1 11.1 0 00-2.45-4.46 19.15 19.15 0 00-6.63-4.61c-2.9-1.33-6.5-2-10.44-2.72s-8.41-1.58-12.43-4.26a18.45 18.45 0 01-2.94-28.11c4.14-4.25 10-6.36 14.78-10.09a18.69 18.69 0 003.14-3.21 13.27 13.27 0 001.92-4c.8-2.84.73-5.81 1-8.7a19.75 19.75 0 01.8-4.27 10.72 10.72 0 012.11-3.74 15 15 0 017.15-4c2.57-.75 5.13-1.22 7.54-1.88a20.54 20.54 0 006.59-3 24.74 24.74 0 004.93-4.62 55.05 55.05 0 003.73-4.94c2.21-3.34 4.1-6.47 6.11-9a29.29 29.29 0 015.83-5.76 16.27 16.27 0 014.61-2.36 9.89 9.89 0 011.75-.44s-.61.14-1.72.54a16.61 16.61 0 00-4.52 2.43 29.16 29.16 0 00-5.72 5.77c-2 2.5-3.84 5.62-6 9a52.69 52.69 0 01-3.72 5.11 25.35 25.35 0 01-5 4.72 21 21 0 01-6.7 3c-2.44.68-5 1.15-7.53 1.9a14.44 14.44 0 00-6.92 3.85 10.24 10.24 0 00-2 3.56 19.11 19.11 0 00-.77 4.16c-.27 2.86-.19 5.85-1 8.8a13.56 13.56 0 01-2 4.12 19.08 19.08 0 01-3.24 3.3 66.66 66.66 0 01-7.69 4.89 33.58 33.58 0 00-7 5.15 18 18 0 002.82 27.4c3.9 2.63 8.34 3.47 12.25 4.26s7.56 1.44 10.48 2.81a19.12 19.12 0 016.67 4.74 11 11 0 012.4 4.57 7.15 7.15 0 01.22 1.33c-.06.37-.06.52-.06.52z" fill="#263238"/><path d="M488.39 120.5a2.49 2.49 0 01-.76-.2 16.7 16.7 0 01-2-.8 26.43 26.43 0 01-10.69-9.19 17.91 17.91 0 01-1.09-1.86 2.42 2.42 0 01-.31-.73c.07 0 .64.92 1.7 2.37a30.74 30.74 0 0010.55 9.08c1.59.83 2.64 1.25 2.6 1.33zm33.25 68.21s-.63-.16-1.76-.4a28.66 28.66 0 00-4.86-.6 64.74 64.74 0 00-7.26.21c-2.74.19-5.76.47-8.95.4a24.31 24.31 0 01-8.83-1.66 15.75 15.75 0 01-5.92-4.32 11.07 11.07 0 01-2.27-4.39 7.58 7.58 0 01-.21-1.33 1.67 1.67 0 010-.47c.06 0 .09.64.41 1.75a11.6 11.6 0 002.37 4.2 15.57 15.57 0 005.82 4.12 24.53 24.53 0 008.65 1.58c3.15.07 6.16-.19 8.91-.36a57.09 57.09 0 017.31-.1 25.31 25.31 0 014.89.77 13.3 13.3 0 011.28.41 1.46 1.46 0 01.42.19zm58.93 45.47s-.09 0-.29.13a4.18 4.18 0 01-.89.29 7.11 7.11 0 01-3.58-.16 11.54 11.54 0 01-4.8-3 20.06 20.06 0 01-3.86-6.47c-1.09-2.56-2-5.5-3.79-8.22a21.59 21.59 0 00-3.17-3.87 25.38 25.38 0 00-4.24-3.21c-6.28-3.79-14.53-5.34-23-4.84s-16.44 2.1-23.81 2.61a46.9 46.9 0 01-19.4-2 26.87 26.87 0 01-11.13-7 16.46 16.46 0 01-1.33-1.59 9.48 9.48 0 01-.86-1.25c-.2-.33-.36-.6-.49-.8a1.21 1.21 0 01-.15-.28s.08.08.2.25l.52.77a12 12 0 00.9 1.21 15.86 15.86 0 001.36 1.55 27.11 27.11 0 0011.09 6.76 47.2 47.2 0 0019.25 1.88c7.33-.54 15.29-2.22 23.82-2.66s16.85 1.07 23.23 4.95a25.81 25.81 0 014.31 3.29 22.15 22.15 0 013.22 4c1.81 2.79 2.7 5.76 3.77 8.31a19.7 19.7 0 003.72 6.41 11.39 11.39 0 004.65 3 7 7 0 003.5.25c.85-.14 1.24-.35 1.25-.31z" fill="#455a64"/><path d="M423.29 120.49a7.48 7.48 0 00-7.62 6.65l-8.09 84.21c-1.4 11.84 14.09 37.23 26.78 38.63 12.81 1.41 14.07-4.8 15.73-16 2.78-18.74 3.71-25.8 3.7-25.69s16.5-.55 22.62-21.18c3-10.26 4.78-27.51 5.75-41.67.87-12.75-5.46-29.36-18.24-29.69z" fill="#ffbe9d"/><path d="M476.58 156.59a2.71 2.71 0 01-3 2.38 2.61 2.61 0 01-2.47-2.8 2.74 2.74 0 013-2.39 2.61 2.61 0 012.47 2.81zm1.15-5.45c-.32.38-2.48-1-5.41-.79s-5 1.82-5.31 1.49c-.16-.15.13-.81 1-1.56a7.5 7.5 0 014.22-1.63 7.16 7.16 0 014.33 1.07c.97.63 1.32 1.28 1.17 1.42zm-26.88 6.97c-.35.35-2.37-1.24-5.3-1.31s-5.12 1.33-5.43 1c-.15-.17.21-.8 1.17-1.45a7.41 7.41 0 014.36-1.21 7.18 7.18 0 014.2 1.49c.88.68 1.15 1.37 1 1.48zm5.46 15.49c0-.17 1.86-.24 4.84-.23.75 0 1.47 0 1.67-.53a3.81 3.81 0 00-.21-2.26q-.69-2.84-1.45-6c-2-8.45-3.33-15.36-3-15.44s2.23 6.72 4.22 15.17c.48 2.08.93 4.06 1.36 6a4.32 4.32 0 010 3 1.87 1.87 0 01-1.36.92 5.08 5.08 0 01-1.29 0c-2.96-.23-4.79-.47-4.78-.63z" fill="#263238"/><path d="M453.79 208.27A54 54 0 01426.56 197s5.21 15.42 26.56 16.23z" fill="#eb996e"/><path d="M451.26 153.1c-.46.71-3.23-.33-6.67-.71s-6.37-.1-6.65-.9c-.12-.38.52-1 1.79-1.49a11.05 11.05 0 015.21-.56 11.19 11.19 0 014.94 1.78c1.12.78 1.59 1.54 1.38 1.88zm26.03-5.89c-.48.69-2.53.11-5 .2s-4.46.67-5 0c-.22-.33.07-1 .93-1.68a6.82 6.82 0 014-1.3 6.91 6.91 0 014 1.13c.97.64 1.28 1.32 1.07 1.65z" fill="#263238"/><path d="M449.23 178.91a6.26 6.26 0 014.59-1 3.57 3.57 0 012.13 1.11 4.53 4.53 0 01.75 3.05 6.14 6.14 0 01-.29 1.91 2.5 2.5 0 01-1.22 1.43 3.43 3.43 0 01-2 .1 7.52 7.52 0 01-3.09-1.12 3.81 3.81 0 01-1.72-2.7 2.58 2.58 0 011.55-2.66" fill="#eb996e"/><path d="M457.12 185.33c-.21.08-.6-.56-1.3-1.43a10.69 10.69 0 00-7.26-4.14c-1.11-.16-1.85-.17-1.9-.39s.65-.59 1.92-.72a8.37 8.37 0 014.81 1.08 8.25 8.25 0 013.37 3.59c.54 1.15.55 1.95.36 2.01zm-50.67 20.23c6.95-1.39 12.31-7.36 14.7-14s2.26-13.95 1.63-21a3.37 3.37 0 00-.95-2.48c-1.05-.81-2.56-.15-3.7.54a115.48 115.48 0 00-12.57 8.84c-3.72 3-7.4 6.45-8.83 11-2.19 7 2.44 15.35 9.53 17.19" fill="#263238"/><path d="M566.2 203.93l-32.77-52.68-9.06-18.54s-2.89-3.83-5.89-7.1c-4.92-5.37-9.79-1.2-9.79-1.2a3.32 3.32 0 00-3.29-2 5.59 5.59 0 00-4.53 2.31s-1.34-1.49-5.06-1.72a3.87 3.87 0 00-2.35.76c-1.22-1.07-3.46-2.61-5.61-1.83-1.68.61-11.87 8.36-14.38 12.26-1.24 1.93 1.06 4.43 4.16 3.26a27.53 27.53 0 003.72-1.51 10.17 10.17 0 002.52-2s-2.57 4.5 0 5.29a5.89 5.89 0 004.83-1.17c1-.82 2.1-1.89 3.17-2.94l-.12.18c-1.42 2.1 2.28 5.21 4.07 3.95a26.62 26.62 0 002.39-1.9c4.16 3-1.61 6.89-4.05 6.69a74.6 74.6 0 00-11.28 0c-2.12.17-4 .68-5.16 1.85-1.38 1.42.07 4.4 2 4.7 3.59.56 8.17 1.35 12.93 2.58 5.6 1.44 20.27 6.21 20.27 6.21l1.43 1.16 19.93 48.61-34.12 7.23-7.62 43.24 61.6-16.72c13.86-7.3 20.47-25.77 12.06-38.97z" fill="#ffbe9d"/><path d="M512.93 159.29a4.2 4.2 0 01-.78-.19l-2.21-.63-8.11-2.41-5.59-1.69c-2-.62-4.15-1.26-6.43-1.84a61.37 61.37 0 00-7.22-1.49 12.36 12.36 0 01-3.92-.71 2.62 2.62 0 01-.88-.65 1.65 1.65 0 01-.3-.54l-.07-.53a5.1 5.1 0 01.13-2.12 2.92 2.92 0 011.42-1.64 10.46 10.46 0 011.9-.76 12.88 12.88 0 014-.49c2.6 0 5.05.4 7.39.3a23.18 23.18 0 003.39-.33c1.09-.2 2.13-.48 3.15-.74a16.86 16.86 0 015.83-.75 15.76 15.76 0 014.7 1.2 29.68 29.68 0 013.28 1.61c.87.49 1.53.9 2 1.17a5.31 5.31 0 01.66.45 4.1 4.1 0 01-.72-.36l-2-1.08a32.23 32.23 0 00-3.29-1.52 15.59 15.59 0 00-4.62-1.1 16.57 16.57 0 00-5.69.79c-1 .27-2.06.57-3.17.78a22.9 22.9 0 01-3.47.36c-2.38.11-4.86-.24-7.4-.27a12.54 12.54 0 00-3.8.47c-1.22.4-2.61.83-3 2.07a4.83 4.83 0 00-.11 1.9l.07.46a.8.8 0 00.19.33 2.36 2.36 0 00.71.53 12.45 12.45 0 003.75.66 61 61 0 017.28 1.54c2.29.59 4.43 1.25 6.43 1.89l5.58 1.75 8.06 2.57 2.18.72a4.09 4.09 0 01.68.29zM487.66 122c.06.08-1.54 1-3.9 2.79a41.13 41.13 0 00-3.92 3.4c-1.4 1.36-2.87 3-4.61 4.45a4.74 4.74 0 00-1.84 2.47 1.74 1.74 0 001.2 2.14 5.26 5.26 0 002.64.05 12.51 12.51 0 002.3-.66 16.48 16.48 0 004.05-2.46 3.91 3.91 0 01-.9.94 12.26 12.26 0 01-3 1.87 12.73 12.73 0 01-2.35.74 5.74 5.74 0 01-2.88 0 2.22 2.22 0 01-1.55-2.71 5.25 5.25 0 012-2.76c1.71-1.46 3.18-3 4.62-4.4a35.37 35.37 0 014-3.34c1.22-.87 2.25-1.49 3-1.91a6.77 6.77 0 011.14-.61z" fill="#eb996e"/><path d="M500.17 126.12a13.75 13.75 0 01-1.16 1.37l-3.29 3.62-4.93 5.33a12.16 12.16 0 01-3.46 2.64 5.35 5.35 0 01-2.3.57 3.2 3.2 0 01-2.3-.92 2.14 2.14 0 01-.54-1.25 3.6 3.6 0 01.13-1.28 7.29 7.29 0 011.06-2.19c1.77-1.87 3.41-3.63 4.88-5.25s2.94-2.89 4.12-4a8.29 8.29 0 011.71-1.37 4.22 4.22 0 011.61-.36c.89-.06 1.41 0 1.36.12a4.1 4.1 0 00-1.34.06 4.53 4.53 0 00-1.51.4 9.17 9.17 0 00-1.61 1.39c-1.14 1.14-2.55 2.46-4 4.06s-3.08 3.42-4.84 5.31a7 7 0 00-1 2 3.21 3.21 0 00-.12 1.1 1.75 1.75 0 00.42.95 2.71 2.71 0 001.92.75 4.83 4.83 0 002.07-.51 11.82 11.82 0 003.33-2.51l5-5.25 3.41-3.5.95-.94q.4-.36.43-.34zm15.32 4.82s0 .31-.4.59A2.12 2.12 0 01512 131c-.23-.38-.23-.67-.17-.68s.2.19.46.45a2.34 2.34 0 001.22.66 2.38 2.38 0 001.38-.21c.34-.16.54-.33.6-.28z" fill="#eb996e"/><path d="M516.69 135.53c-.11.09-.86-.66-1.52-1.79a4.16 4.16 0 01-.83-2.19c.13-.05.63.85 1.28 1.93a7.81 7.81 0 011.07 2.05zm2.21 17.88a6.46 6.46 0 01-.95-2.08 17 17 0 01-.82-5.47 17.15 17.15 0 011-5.44 6.41 6.41 0 011-2.06 26.61 26.61 0 00-1.45 7.51 26.34 26.34 0 001.22 7.54zm26.92 69.29c-.1 0-.2-1.06-.72-2.69a16.81 16.81 0 00-1.18-2.75 16.67 16.67 0 00-4.8-5.45 16.29 16.29 0 00-2.57-1.53c-1.54-.73-2.59-1-2.57-1.06a2.21 2.21 0 01.75.1 11.61 11.61 0 012 .62 14.79 14.79 0 012.7 1.48 15.41 15.41 0 014.94 5.62 14.28 14.28 0 011.11 2.87 11.24 11.24 0 01.37 2 2.48 2.48 0 01-.03.79z" fill="#eb996e"/><path d="M431.44 319a14.23 14.23 0 00-8.33 1.06c-4.45-2-9.94 1.43-9.94 1.43-1.61-.77-11.31 5.57-11.31 5.57l-12.08 5.7-64.53-47.95 18.29-19-25.63-26.67-30 30.9a22.65 22.65 0 00-6 14.55 29.59 29.59 0 0016.43 28l76 39a88.75 88.75 0 0017.29-2.69c6.56-1.71 17.77-6.69 17.77-6.69s0 .34 2 4.23c3.61 7 8.9-.56 8.9-.56a14.51 14.51 0 002.06 3.42c4.57 4.43 7.74-1.52 7.74-1.52s1.37 2.39 5.45.61-.59-14.06-.59-14.06 1.37 2.67 4-.71-3.15-13.7-7.52-14.62z" fill="#ffbe9d"/><path d="M422.31 320.69a1.93 1.93 0 01.84-.33 5 5 0 012.45.08 9.35 9.35 0 013.23 1.65 12.42 12.42 0 011.61 1.43 9.94 9.94 0 011.26 2 48.6 48.6 0 012.95 7.41c.3 1 .5 1.77.63 2.33a2.63 2.63 0 01.13.88c-.07 0-.43-1.19-1.11-3.1a68.39 68.39 0 00-3.07-7.29 8.86 8.86 0 00-1.18-1.85 13.09 13.09 0 00-1.51-1.39 9.91 9.91 0 00-3-1.68 6.69 6.69 0 00-3.23-.14zm7.77 27.12a5.65 5.65 0 01-.57-1.11l-1.41-3.06c-1.19-2.59-2.93-6.13-4.59-10.16a27 27 0 00-2.63-5.47 9 9 0 00-3.71-3.09 6 6 0 00-3.2-.57c-.78.1-1.18.31-1.2.26s.09-.07.28-.17a3.19 3.19 0 01.88-.29 5.87 5.87 0 013.39.43 9.17 9.17 0 013.95 3.16 26 26 0 012.72 5.54c1.65 4 3.34 7.58 4.45 10.21.55 1.31 1 2.39 1.26 3.13a5.72 5.72 0 01.38 1.19zm-29.62-15.43a5.67 5.67 0 011-.57l2.88-1.39c.62-.29 1.27-.61 2-.93a5.66 5.66 0 012.59-.38 5.39 5.39 0 012.72 1 8.53 8.53 0 012 2.36c.55.9 1 1.83 1.4 2.69s.87 1.69 1.31 2.47c.87 1.55 1.69 2.94 2.29 4.16a23.44 23.44 0 011.28 2.95 4.13 4.13 0 01.32 1.13c-.08 0-.62-1.55-1.92-3.91-.65-1.18-1.49-2.54-2.39-4.09-.45-.78-.9-1.61-1.34-2.48s-.86-1.78-1.39-2.65a8.5 8.5 0 00-1.85-2.23 5.05 5.05 0 00-2.45-1 5.23 5.23 0 00-2.39.3c-.72.29-1.41.61-2 .86l-2.95 1.33a4.86 4.86 0 01-1.11.38zm1.4-5.31a3.86 3.86 0 01-.88.55c-.58.33-1.43.79-2.49 1.35-2.11 1.12-5.05 2.64-8.31 4.28s-6.22 3.1-8.38 4.14l-2.56 1.2a4 4 0 01-1 .37 4.36 4.36 0 01.89-.56c.58-.32 1.43-.78 2.49-1.34 2.11-1.12 5.05-2.63 8.31-4.28s6.22-3.1 8.37-4.13c1.08-.52 2-.93 2.57-1.21a3.65 3.65 0 01.99-.37zm-75.75-42.14a32.63 32.63 0 00-7.62-.25 33 33 0 00-7.36 2 7.1 7.1 0 012-1.12 19.12 19.12 0 015.3-1.42 19.33 19.33 0 015.5.14 7.05 7.05 0 012.18.65z" fill="#eb996e"/><path d="M468.62 111.71a201 201 0 00-47.52 5c-3.61.83-7.43 1.89-9.87 4.67-2.59 2.94-3 7.13-3.38 11l-1.24 14.25a32.82 32.82 0 01-2.27 3.39c-3.76 4.91-8.55 9-12 14.16s-5.31 12-2.53 17.52c1.69 3.34 4.81 5.7 7.09 8.66 3.87 5 5.13 11.51 7.39 17.44s6.34 12 12.57 13.16c3 .57 6.06-.06 9.05.38 4.47.65 8.23 3.58 11.78 6.37s7.41 5.63 11.91 6.08 9.65-2.6 9.74-7.12a10.56 10.56 0 01-10.87-.3c-2.62-1.73-4.31-4.53-6.56-6.71-5.53-5.36-14.43-7.06-18.28-13.73-3-5.27-1.83-11.88-.45-17.81 1.19-5.14 2.41-10.71.92-15.65a17.51 17.51 0 00.19-2.4c0-5.26-2.05-10.9.4-15.55 3.24-6.16 12.58-6.94 15.85-13.07 1.91-3.57 1.24-8.13 3.32-11.6 1.95-3.26 5.86-4.76 9.58-5.57s7.63-1.18 10.91-3.1 5.76-5.98 4.27-9.47z" fill="#263238"/><path d="M480.74 219a1 1 0 01-.15.25l-.49.69a13.9 13.9 0 01-2.3 2.33 15.53 15.53 0 01-4.57 2.45 15.79 15.79 0 01-6.8.79 14.37 14.37 0 01-7.66-3.14c-2.38-1.83-4.5-4.26-7.19-6.19a10.38 10.38 0 00-4.58-1.93 10 10 0 00-5.1.93 25.57 25.57 0 01-5.29 1.82 9.29 9.29 0 01-5.7-1 28.68 28.68 0 01-4.81-3.19 39.09 39.09 0 01-4.22-3.67 13.19 13.19 0 01-3-4.52 9.36 9.36 0 01-.34-5.2 28.27 28.27 0 011.51-4.69 60.98 60.98 0 001.52-4.34 58.26 58.26 0 001.85-8 59.17 59.17 0 00.65-11.93c-.06-1.41-.15-2.51-.23-3.25 0-.35 0-.62-.07-.84a.91.91 0 010-.29.9.9 0 01.06.28l.12.84c.11.74.24 1.83.33 3.25a56.88 56.88 0 01-.48 12 58.87 58.87 0 01-1.8 8.11c-.44 1.42-.94 2.89-1.51 4.38a28.16 28.16 0 00-1.49 4.56 8.79 8.79 0 00.34 4.94 12.73 12.73 0 002.9 4.34 38.46 38.46 0 004.17 3.61 28.21 28.21 0 004.72 3.13 8.74 8.74 0 005.39 1 25.42 25.42 0 005.18-1.79 10.57 10.57 0 015.35-.94 10.85 10.85 0 014.8 2c2.74 2 4.84 4.44 7.18 6.25a13.92 13.92 0 007.43 3.11 16 16 0 0011.2-3 18.49 18.49 0 003.08-3.15z" fill="#263238"/><path d="M380.83 187.2a11.57 11.57 0 01-.8-1.11 11.31 11.31 0 01-1.42-3.64 15.06 15.06 0 01.1-6.18 19 19 0 013.46-7.42 34.59 34.59 0 017.22-6.82c2.87-2.14 6.13-4.13 9.38-6.44a34.42 34.42 0 008.9-8.65 22.29 22.29 0 002.7-6c.64-2.14 1.08-4.38 1.6-6.64a35.3 35.3 0 012-6.58 14.86 14.86 0 013.93-5.43 16.68 16.68 0 015.67-3.13 26.29 26.29 0 016.08-1.2 69.41 69.41 0 0111.4.36 52.91 52.91 0 009.86.13 21 21 0 007.73-2.3 15.32 15.32 0 004.73-3.82 11.49 11.49 0 001.92-3.35c.28-.84.39-1.3.41-1.29a9.79 9.79 0 01-.31 1.33 11.3 11.3 0 01-1.86 3.44 15.53 15.53 0 01-4.75 4 21.22 21.22 0 01-7.83 2.41 52.62 52.62 0 01-9.94-.07 70 70 0 00-11.32-.31 25.63 25.63 0 00-6 1.2 16.26 16.26 0 00-5.5 3 14.44 14.44 0 00-3.79 5.26 34.43 34.43 0 00-2 6.49c-.52 2.25-1 4.5-1.62 6.67a22.2 22.2 0 01-2.77 6.1 34.72 34.72 0 01-9 8.76c-3.28 2.32-6.54 4.29-9.4 6.4a34.21 34.21 0 00-7.18 6.7 18.44 18.44 0 00-3.47 7.25 14.76 14.76 0 00-.19 6.08 12.73 12.73 0 002.06 4.8z" fill="#455a64"/><path d="M383.76 192.45a22.11 22.11 0 01-3.07-2.95 13.75 13.75 0 01-2.67-4.23 6.93 6.93 0 01-.46-3.13 6.21 6.21 0 011.35-3.27c1.62-2 4.3-3.06 7.11-3.65 1.41-.29 2.89-.52 4.36-.89a12.4 12.4 0 004.26-1.77 10.28 10.28 0 003.1-3.67 33.68 33.68 0 001.92-4.77 33.78 33.78 0 012-5 10.6 10.6 0 013.75-4.15 18.42 18.42 0 015.21-2c1.77-.46 3.52-.83 5.17-1.39a16.72 16.72 0 007.94-5.85 60.6 60.6 0 004.97-7.73 42.8 42.8 0 014.49-6.65 17.08 17.08 0 015.13-4.19 12.94 12.94 0 014.79-1.45 9 9 0 013.16.26 6.2 6.2 0 011 .36s-.37-.1-1.07-.26a9.81 9.81 0 00-3.11-.16 13.09 13.09 0 00-4.67 1.5 17 17 0 00-5 4.17 44.21 44.21 0 00-4.4 6.64 60.25 60.25 0 01-4.92 7.79 20.89 20.89 0 01-3.53 3.57A15.36 15.36 0 01416 152c-1.68.58-3.45.95-5.2 1.41a17.75 17.75 0 00-5.06 2 10.11 10.11 0 00-3.58 4 33.32 33.32 0 00-2 4.93 33.44 33.44 0 01-2 4.83 11 11 0 01-3.26 3.84 13.24 13.24 0 01-4.43 1.82c-1.5.36-3 .58-4.38.87-2.77.56-5.38 1.59-6.91 3.45a5.88 5.88 0 00-1.31 3.08 6.69 6.69 0 00.4 3 14.24 14.24 0 002.55 4.2c.88 1 1.63 1.79 2.14 2.3l.59.57c.15.07.22.14.21.15z" fill="#455a64"/><path d="M506.86 127.85a3.56 3.56 0 01-.52.77c-.36.48-.89 1.16-1.58 2a94.686 94.686 0 01-5.62 6.15c-1.14 1.12-2.21 2.38-3.68 2.84a3.24 3.24 0 01-2.11 0 2.7 2.7 0 01-1.36-1.25 4.07 4.07 0 01-.37-2.54 2.38 2.38 0 01.23-.9 4.29 4.29 0 010 .92 4.1 4.1 0 00.49 2.34 2.31 2.31 0 001.19 1 2.75 2.75 0 001.81 0c1.28-.41 2.31-1.61 3.46-2.75 2.29-2.29 4.28-4.45 5.72-6a25.92 25.92 0 012.34-2.58z" fill="#eb996e"/><path d="M514.5 127.85a3.4 3.4 0 01-.61.78c-.41.48-1 1.16-1.78 2l-2.69 2.91-1.6 1.7A14.24 14.24 0 01506 137a4.71 4.71 0 01-2.44 1 2.5 2.5 0 01-2.27-1 2 2 0 01-.37-1.16 2.29 2.29 0 01.34-1.07c.37-.6.75-1.06 1.08-1.52.66-.91 1.21-1.64 1.6-2.14a3.45 3.45 0 01.65-.74 4.11 4.11 0 01-.48.86c-.34.53-.84 1.29-1.47 2.23-.31.47-.69 1-1 1.52a1.49 1.49 0 000 1.74 2 2 0 001.85.76 4.22 4.22 0 002.16-.88 13 13 0 001.81-1.66l1.63-1.68 2.77-2.84c.79-.8 1.44-1.44 1.9-1.88a3.66 3.66 0 01.74-.69z" fill="#eb996e"/><path d="M618.91 434a12.68 12.68 0 0120.59-3.57 16.46 16.46 0 01-9.21 7.08 10 10 0 01-11.38-3.51" fill="#007df4"/><path d="M611.81 435.64a12.85 12.85 0 012.87-.9c1.81-.44 4.33-.93 7.12-1.39s5.33-.81 7.18-1a17.08 17.08 0 013-.23 17.8 17.8 0 01-2.94.6l-7.15 1.17c-2.78.46-5.3.9-7.12 1.24a26.52 26.52 0 01-2.96.51z" fill="#263238"/><path d="M261.48 370.69a16.66 16.66 0 01-3 27.69c-3.67-9.41-5.08-19.54 3-27.69m13.91 7.22A21.55 21.55 0 00306.54 396c-7-11-16.47-20.27-31.15-18.11" fill="#007df4"/><path d="M243.52 343.13a2.82 2.82 0 01.47.5l1.25 1.49c1.06 1.31 2.61 3.2 4.57 5.49 3.9 4.6 9.41 10.86 15.9 17.39 3.25 3.26 6.44 6.27 9.4 8.93s5.76 4.93 8.16 6.75a62.15 62.15 0 005.89 4c1.45.86 2.31 1.22 2.29 1.27a2.55 2.55 0 01-.64-.24 15.27 15.27 0 01-1.75-.85 53.25 53.25 0 01-6-3.89c-2.44-1.8-5.24-4.07-8.25-6.69s-6.2-5.66-9.46-8.92c-6.5-6.54-12-12.85-15.81-17.52-1.93-2.33-3.43-4.26-4.45-5.6l-1.18-1.56a3.62 3.62 0 01-.39-.55z" fill="#263238"/><path d="M260.71 384.91c-.09 0 .24-1.4.53-3.67a39.12 39.12 0 00-1.84-17.62c-.75-2.16-1.36-3.45-1.28-3.49a3.73 3.73 0 01.51.86 25.87 25.87 0 011.12 2.5 34.8 34.8 0 012.1 8.78 34.41 34.41 0 01-.25 9 24.68 24.68 0 01-.6 2.73 4.12 4.12 0 01-.29.91z" fill="#263238"/><path d="M702 182.54a12.67 12.67 0 016.62-19.81 16.42 16.42 0 011.87 11.45 10 10 0 01-8.49 8.36" fill="#007df4"/><path d="M700.1 189.57a12.44 12.44 0 01.57-2.95c.47-1.8 1.23-4.25 2.15-6.93s1.82-5.08 2.5-6.81a16.15 16.15 0 011.22-2.75 18.11 18.11 0 01-.87 2.88c-.66 1.91-1.47 4.25-2.36 6.85s-1.73 5.1-2.29 6.86a29.24 29.24 0 01-.92 2.85z" fill="#263238"/><path d="M658 256.94a24.5 24.5 0 0126.21-30.74c1.39 7.56-1 15.32-4.95 21.89-4.71 7.75-14.07 11-21.26 8.85" fill="#007df4"/><path d="M628.41 286.54a3.49 3.49 0 01.43-.54l1.29-1.47c1.15-1.26 2.83-3.06 4.92-5.26 4.2-4.4 10.06-10.41 16.58-17s12.45-12.54 16.77-16.81l5.14-5.05 1.42-1.35c.32-.3.5-.46.52-.44a3.68 3.68 0 01-.45.52l-1.35 1.42-5 5.15L652 262.63l-16.68 16.9-5 5.14-1.36 1.4a3.14 3.14 0 01-.55.47z" fill="#263238"/><path d="M658 256.94a24.5 24.5 0 0126.21-30.74c1.39 7.56-1 15.32-4.95 21.89-4.71 7.75-14.07 11-21.26 8.85" opacity=".3"/><path d="M644.29 259.91a15 15 0 01-3.13-24.6c4 2.5 6.56 6.77 7.89 11.29 1.58 5.34-.8 11-4.76 13.31" fill="#007df4"/><path d="M644.29 259.91a15 15 0 01-3.13-24.6c4 2.5 6.56 6.77 7.89 11.29 1.58 5.34-.8 11-4.76 13.31" opacity=".3"/><path d="M645.85 268.43a3.9 3.9 0 01-.3-.92c-.17-.59-.36-1.46-.57-2.55-.42-2.16-.86-5.18-1.26-8.51s-.68-6.37-.85-8.57a21.67 21.67 0 01-.14-3.56 26.35 26.35 0 01.51 3.53c.27 2.32.62 5.27 1 8.54s.78 6.34 1.1 8.51.59 3.51.51 3.53z" fill="#263238"/><path d="M457 375.81a23.67 23.67 0 0139-7.08c-11.34 8.79-24.57 14.79-38.92 7.08" fill="#007df4"/><path d="M457 375.81a23.67 23.67 0 0139-7.08c-11.34 8.79-24.57 14.79-38.92 7.08" opacity=".3"/><path d="M450.63 379.33a4.61 4.61 0 01.9-.7c.6-.43 1.49-1 2.63-1.66a50 50 0 0119.35-6.39c1.3-.14 2.36-.21 3.09-.22a4.19 4.19 0 011.14 0c0 .08-1.61.18-4.19.56a59.76 59.76 0 00-9.89 2.32 59 59 0 00-9.32 4c-2.34 1.28-3.66 2.16-3.71 2.09z" fill="#263238"/><path d="M193.43 245.51a18.28 18.28 0 0126 16.05c-11.05-.82-21.74-4.21-26-16.05" fill="#007df4"/><path d="M193.43 245.51a18.28 18.28 0 0126 16.05c-11.05-.82-21.74-4.21-26-16.05" opacity=".3"/><path d="M187.94 244.22a2.71 2.71 0 01.88 0 23.1 23.1 0 012.37.38 38.29 38.29 0 017.54 2.41 38.85 38.85 0 016.88 3.93c.82.6 1.46 1.11 1.88 1.49a3.38 3.38 0 01.63.62c-.06.07-1-.7-2.72-1.8a45.84 45.84 0 00-14.29-6.25c-1.95-.49-3.18-.7-3.17-.78z" fill="#263238"/><path d="M551.76 363.56a16.35 16.35 0 0120.88-17.64c-3.77 9.17-9.63 17.32-20.88 17.64" fill="#007df4"/><path d="M549.13 367.87a11.91 11.91 0 011.25-2.66 33.64 33.64 0 019.41-10.5 12 12 0 012.51-1.53A27.35 27.35 0 01560 355a41.48 41.48 0 00-9.32 10.39 25.49 25.49 0 01-1.55 2.48z" fill="#263238"/><path d="M630.45 311.61a16.35 16.35 0 0117.19-21.25c-2 9.72-6.2 18.82-17.19 21.25" fill="#007df4"/><path d="M630.45 311.61a16.35 16.35 0 0117.19-21.25c-2 9.72-6.2 18.82-17.19 21.25" opacity=".3"/><path d="M628.68 316.34a11.52 11.52 0 01.73-2.84 32.9 32.9 0 013-6.43 32.56 32.56 0 014.28-5.65 12 12 0 012.17-2 27.62 27.62 0 01-1.9 2.22 43.68 43.68 0 00-4.11 5.68 44.51 44.51 0 00-3.09 6.28 25.56 25.56 0 01-1.08 2.74z" fill="#263238"/><path d="M37.28 240.1a16.35 16.35 0 0125.56-9.69c-6.6 7.39-14.84 13.13-25.56 9.69" fill="#007df4"/><path d="M33.37 243.29a12.4 12.4 0 012.06-2.09 33.38 33.38 0 015.82-4 32.68 32.68 0 016.55-2.73 11.37 11.37 0 012.87-.61 27 27 0 01-2.76 1 41.18 41.18 0 00-12.24 6.7 24.42 24.42 0 01-2.3 1.73z" fill="#263238"/><path d="M494.37 109.6l8-14.49a38.61 38.61 0 119.35 10.2z" fill="#fff"/><path d="M494.37 109.6l17.37-4.4-.07.21-.61-.77.8.59a39.63 39.63 0 007.94 4.62 38.6 38.6 0 0010.52 2.85 34.49 34.49 0 006.05.22c1-.07 2.1-.11 3.17-.21l3.21-.53a38.47 38.47 0 0023.65-15.57 38.13 38.13 0 006.28-14.79 38.87 38.87 0 00-.68-16.95 37.67 37.67 0 00-8.31-15.57l-1.57-1.69c-.52-.57-1.13-1-1.69-1.56a20.43 20.43 0 00-1.74-1.49l-1.84-1.35A15.81 15.81 0 00555 42l-2-1.18-2-1a17.63 17.63 0 00-2-.89 38.77 38.77 0 00-17.09-2.47 37.45 37.45 0 00-15.63 4.76 38.78 38.78 0 00-17.94 22.4 42 42 0 00-1.58 12.44 38.34 38.34 0 005.8 19v.13l-8.15 14.42 7.93-14.55v.13a38.34 38.34 0 01-5.95-19.07 42 42 0 011.55-12.56A39.24 39.24 0 01516 40.84 38.08 38.08 0 01531.83 36a39.37 39.37 0 0117.32 2.49 18 18 0 012.07.9l2.06 1 2 1.17a17.18 17.18 0 011.93 1.25l1.79 1.34c.64.44 1.17 1 1.77 1.51s1.18 1 1.71 1.58l1.63 1.76a37.91 37.91 0 018.42 15.78 39.44 39.44 0 01.62 17.16 38.37 38.37 0 01-6.38 15 38.79 38.79 0 01-23.95 15.7l-3.26.53c-1.07.1-2.14.13-3.19.2a34.13 34.13 0 01-6.11-.25 38.45 38.45 0 01-10.61-2.92 39 39 0 01-8-4.71l.18-.18.13.16h-.2z" fill="#263238"/><path d="M524.36 68l5-.05a4.25 4.25 0 014.33-4.32 4 4 0 013.95 2.55 4.49 4.49 0 01-.31 4.06c-.84 1.41-2.69 2.7-6.08 2.14l.11 11.31h5l-.09-6.69a9.7 9.7 0 006.87-9.53c-.07-7.33-6.66-9-9.48-8.94-2.15.05-9.48.64-9.3 9.47zm7.031 18.025l5.03-.048.045 4.7-5.03.048z" fill="#007df4"/></svg>